<svg width="742" height="501" viewBox="0 0 742 501" fill="none" xmlns="http://www.w3.org/2000/svg">
<g clip-path="url(#clip0_792_700)">
<g clip-path="url(#clip1_792_700)">
<path d="M404.664 136.039L404.671 136.036C412.644 131.687 444.24 109.84 474.08 88.2358C500.13 69.3026 543.67 44.288 563.572 36.5206C568.339 34.5991 576.67 32.8729 584.921 31.7803C593.17 30.6881 601.434 30.2161 606.067 30.8421C612.325 31.6214 618.664 34.3784 623.889 38.1571C629.11 41.9332 633.265 46.7638 635.099 51.7283L635.102 51.737C637.003 57.1904 637.322 64.5715 636.465 71.1113C636.035 74.3861 635.308 77.4712 634.324 80.0172C633.346 82.5488 632.091 84.6075 630.566 85.7591C628.862 87.0673 627.509 88.0152 626.508 88.5279C626.013 88.7814 625.555 88.9555 625.156 88.9861C624.95 89.0019 624.735 88.9815 624.535 88.8929C624.327 88.8013 624.167 88.6504 624.056 88.4594C623.85 88.1052 623.83 87.6388 623.88 87.1582C623.933 86.6573 624.075 86.0417 624.293 85.316C624.728 83.8642 625.49 81.8949 626.55 79.3745C629.129 72.5223 629.514 66.5297 627.691 57.9747C626.483 52.6397 625.552 49.5407 623.879 47.2461C622.215 44.9653 619.777 43.4288 615.392 41.3458L615.389 41.3444C610.877 39.1634 607.971 38.1459 603.776 38.1456C599.534 38.1452 593.969 39.1844 584.139 41.2071L584.138 41.2074C568.638 44.3526 556.744 48.7765 541.974 56.7824L541.969 56.7849C531.531 62.3015 511.797 74.5464 493.982 86.1472C485.077 91.9457 476.659 97.579 470.129 102.125C466.864 104.398 464.074 106.397 461.932 108.007C459.782 109.625 458.319 110.827 457.674 111.516C456 113.388 451.876 116.63 446.415 120.548C440.931 124.483 434.051 129.133 426.827 133.827C412.384 143.209 396.538 152.783 387.712 157.154L387.709 157.155C383.809 159.056 377.284 162.665 373.253 165.366L373.248 165.37C362.942 172.065 346.874 181.012 331.6 188.85C316.337 196.683 301.82 203.434 294.629 205.717L294.627 205.718C284.839 208.783 277.951 210.24 272.618 209.95C267.236 209.657 263.462 207.585 259.916 203.702C256.315 199.758 255.162 194.251 256.217 188.213C257.271 182.177 260.531 175.575 265.811 169.348C268.604 166.024 270.953 163.752 272.747 162.439C273.64 161.786 274.424 161.349 275.076 161.153C275.711 160.961 276.38 160.958 276.824 161.438C277.236 161.883 277.276 162.57 277.161 163.279C277.041 164.02 276.726 164.943 276.223 166.024C275.215 168.192 273.41 171.087 270.709 174.595L270.706 174.599C266.962 179.369 264.875 182.519 263.935 185.33C263.008 188.103 263.184 190.588 264.104 194.071L264.104 194.071L264.106 194.079L266.053 201.967L284.007 198.721C284.007 198.721 284.007 198.721 284.007 198.721C300.527 195.683 307.552 192.289 348.873 168.413C374.46 153.498 399.578 138.914 404.664 136.039Z" fill="#36290E" stroke="#36290E"/>
<path d="M543.449 140.561L543.449 140.562L543.439 140.556C541.699 139.625 540.367 138.641 539.623 137.306C538.868 135.952 538.765 134.328 539.279 132.229C539.79 130.14 540.926 127.525 542.719 124.132C544.515 120.735 546.987 116.528 550.192 111.252C555.534 102.302 560.007 96.0686 563.283 92.8403C564.104 92.0308 564.863 91.398 565.552 90.9571C566.235 90.5204 566.888 90.2468 567.493 90.2112C568.129 90.1738 568.68 90.4035 569.09 90.8961C569.478 91.3628 569.712 92.032 569.835 92.8422C569.857 92.9823 569.843 93.129 569.822 93.2569C569.8 93.392 569.764 93.5425 569.716 93.7035C569.622 94.0257 569.476 94.4217 569.288 94.876C568.911 95.7864 568.351 96.9666 567.65 98.3255C566.248 101.044 564.269 104.504 562.034 108.003C558.666 113.501 556.145 117.616 554.316 120.782C552.484 123.954 551.365 126.142 550.786 127.791C550.213 129.426 550.188 130.481 550.487 131.414C550.799 132.385 551.475 133.282 552.477 134.597L552.486 134.608L552.493 134.619C553.354 135.887 554.033 137.04 554.475 138.698C554.914 140.342 555.112 142.455 555.069 145.645C554.983 152.016 553.929 162.829 551.76 183.087C550.806 192.498 546.309 197.887 541.428 198.419C538.984 198.685 536.544 197.707 534.559 195.526C532.58 193.352 531.051 189.986 530.358 185.432C530.122 183.884 529.992 182.595 529.992 181.538C529.993 180.485 530.123 179.619 530.44 178.941C530.768 178.24 531.284 177.766 531.986 177.496C532.663 177.235 533.49 177.174 534.444 177.23C536.023 177.277 537.305 177.883 538.188 179.046C539.057 180.191 539.496 181.819 539.533 183.839L539.533 183.847L539.533 183.856C539.511 185.377 539.782 186.702 540.19 187.602C540.395 188.053 540.622 188.371 540.839 188.559C541.025 188.721 541.181 188.771 541.31 188.765C541.313 188.762 541.316 188.759 541.32 188.755C541.365 188.707 541.43 188.618 541.51 188.471C541.67 188.179 541.85 187.735 542.043 187.136C542.427 185.945 542.838 184.223 543.249 182.086C544.07 177.816 544.879 171.938 545.462 165.433L545.462 165.432C546.401 155.17 546.82 149.386 546.517 145.914C546.367 144.186 546.041 143.09 545.554 142.314C545.073 141.549 544.403 141.044 543.449 140.561ZM541.289 188.784C541.289 188.784 541.29 188.783 541.291 188.782C541.29 188.783 541.289 188.784 541.289 188.784Z" fill="#36290E" stroke="#36290E"/>
<path d="M613.565 108.455L613.569 108.452C624.709 99.6986 636.318 97.2094 647.41 99.8338C658.483 102.453 668.973 110.152 677.944 121.642C695.884 144.621 707.856 182.896 706.322 226.786L706.322 226.788C705.786 240.93 704.165 254.731 701.88 266.158C699.6 277.56 696.645 286.673 693.401 291.381C692.184 293.161 689.807 294.795 686.969 296.17C684.112 297.554 680.717 298.709 677.384 299.496C674.055 300.283 670.761 300.71 668.108 300.621C666.782 300.577 665.593 300.404 664.632 300.068C663.682 299.737 662.901 299.227 662.469 298.471C662.124 297.951 661.945 297.376 662.15 296.805C662.349 296.252 662.858 295.858 663.505 295.562C664.801 294.969 667.064 294.585 670.34 294.343C675.266 293.97 679.24 292.807 682.5 290.373C685.761 287.939 688.361 284.192 690.464 278.55C694.681 267.237 696.839 248.483 698.445 217.974L698.445 217.971C699.135 206.275 697.424 191.14 694.29 176.75C691.156 162.356 686.61 148.766 681.658 140.148C676.972 132.114 670.462 124.239 663.921 118.195C660.651 115.173 657.38 112.617 654.334 110.729C651.282 108.837 648.486 107.637 646.161 107.291L646.152 107.289C640.995 106.426 633.894 107.564 626.658 110.597L626.65 110.6C621.803 112.539 618.62 114.276 615.454 117.471C612.267 120.686 609.08 125.394 604.277 133.328C592.641 152.822 588.281 165.77 587.788 183.901L587.788 183.905C587.634 188.332 587.769 191.372 588.349 193.69C588.922 195.98 589.933 197.578 591.58 199.111L591.588 199.119L591.597 199.128C593.218 200.789 594.224 202.31 594.67 204.196C595.112 206.065 594.99 208.238 594.475 211.174L594.474 211.182L594.472 211.19C594.025 213.335 593.341 215.043 592.493 216.269C591.645 217.494 590.606 218.274 589.452 218.468C588.287 218.664 587.116 218.245 586.057 217.304C585.004 216.367 584.036 214.897 583.226 212.91L583.225 212.908C582.417 210.9 581.656 209.672 580.877 209.132C580.509 208.876 580.144 208.779 579.75 208.821C579.341 208.864 578.857 209.061 578.279 209.477C577.112 210.317 575.692 211.95 573.905 214.516C572.126 217.071 570.012 220.507 567.45 224.907C561.197 235.706 557.565 243.315 555.882 250.305C554.202 257.277 554.453 263.669 556.034 272.047L556.035 272.05C557.871 282.102 557.345 292.421 554.103 308.142L554.102 308.149L554.1 308.157C552.697 314.086 551.296 319.754 550.11 324.073C549.517 326.232 548.975 328.061 548.512 329.42C548.281 330.099 548.067 330.669 547.872 331.108C547.69 331.519 547.496 331.888 547.283 332.096C546.682 332.697 546.078 333.092 545.475 333.24C544.85 333.395 544.266 333.274 543.764 332.921C543.28 332.581 542.898 332.043 542.601 331.394C542.301 330.741 542.07 329.942 541.908 329.035C541.26 325.422 541.647 319.855 543.409 314.192C546.302 304.478 547.98 294.993 548.359 286.623C548.737 278.243 547.811 271.019 545.53 265.803L545.53 265.803L545.527 265.795C541.835 256.893 536.509 251.889 530.731 250.789C524.964 249.691 518.538 252.442 512.551 259.526L512.549 259.528C501.33 272.631 493.277 294.562 490.404 312.679C488.967 321.739 488.836 329.781 490.215 335.253C490.905 337.99 491.958 340.024 493.354 341.24C494.724 342.432 496.477 342.882 498.71 342.355C501.309 341.741 503.514 339.74 505.217 336.797C506.917 333.859 508.084 330.033 508.622 325.887C509.701 317.577 508.238 308.145 503.701 302.188L503.701 302.188L503.697 302.183C503.105 301.383 502.657 300.697 502.396 300.115C502.141 299.547 502.012 298.964 502.245 298.447C502.48 297.922 503.004 297.643 503.603 297.479C504.212 297.312 505.023 297.23 506.022 297.195C508.189 297.064 510.094 298.491 511.641 300.738C513.199 303.001 514.478 306.207 515.386 309.908C517.203 317.311 517.57 326.831 515.614 335.102C514.408 340.698 513.419 344.04 511.647 346.309C509.854 348.604 507.31 349.743 503.227 351.107L503.227 351.108C498.997 352.515 495.194 352.55 491.943 351.332C488.69 350.114 486.047 347.661 484.1 344.197C480.218 337.29 479.071 326.304 481.34 312.662C481.537 311.444 481.725 310.242 481.91 309.05C483.052 301.731 484.132 294.802 486.937 286.72C490.201 277.315 495.794 266.363 506.507 251.36L506.523 251.337L506.541 251.317C515.127 241.701 528.398 239.087 539.129 245.261C539.129 245.261 539.13 245.262 539.131 245.262L546.946 249.675L549.408 243.451C549.408 243.45 549.408 243.45 549.409 243.449C551.745 237.391 557.562 226.861 563.304 217.541C566.179 212.876 569.042 208.501 571.452 205.128C572.656 203.441 573.752 202 574.681 200.895C575.593 199.811 576.385 199.002 576.985 198.629C578.111 197.889 579.025 196.463 579.581 194.298C580.136 192.135 580.318 189.287 580.022 185.795L580.021 185.788C579.565 179.266 581.805 167.939 585.276 156.488C588.75 145.025 593.49 133.334 598.095 126.068C601.796 120.089 608.807 112.27 613.565 108.455Z" fill="#36290E" stroke="#36290E"/>
<path d="M495.775 205.311L491.935 215.082L491.935 215.083C490.933 217.607 489.99 219.689 489.085 221.333C488.184 222.973 487.305 224.206 486.423 225.009C485.536 225.816 484.599 226.226 483.612 226.101C482.644 225.977 481.755 225.352 480.921 224.382L480.905 224.364L480.891 224.345C480.781 224.188 480.73 223.976 480.698 223.811C480.661 223.62 480.632 223.381 480.609 223.105C480.562 222.55 480.535 221.802 480.526 220.889C480.508 219.06 480.56 216.534 480.673 213.497C480.899 207.421 481.368 199.276 482.007 190.517L482.006 190.517L482.007 190.508C482.793 181.868 483.335 173.793 483.56 167.736C483.673 164.706 483.706 162.188 483.651 160.36C483.624 159.445 483.575 158.713 483.505 158.18C483.47 157.914 483.431 157.708 483.391 157.56C483.363 157.457 483.34 157.403 483.33 157.38C483.201 157.277 482.925 157.161 482.442 157.099C481.936 157.035 481.281 157.04 480.514 157.125C478.983 157.294 477.068 157.777 475.13 158.586L475.115 158.592L475.1 158.597C473.005 159.317 471.229 159.628 469.845 159.586C468.483 159.545 467.383 159.155 466.825 158.332C466.248 157.483 466.382 156.385 467.004 155.261C467.629 154.131 468.798 152.865 470.529 151.536C474.304 148.446 477.73 146.879 480.709 146.824C483.731 146.768 486.194 148.269 487.994 151.077C489.779 153.862 490.925 157.945 491.386 163.145C491.848 168.352 491.626 174.72 490.641 182.108C490.102 186.309 489.86 189.751 489.854 192.324C489.851 193.611 489.906 194.672 490.011 195.497C490.118 196.337 490.27 196.883 490.429 197.177C490.467 197.246 490.5 197.292 490.526 197.321C490.533 197.329 490.539 197.335 490.544 197.34C490.591 197.317 490.681 197.253 490.809 197.099C490.943 196.94 491.095 196.71 491.263 196.4C491.943 195.146 492.763 192.795 493.656 189.192C494.284 186.297 495.354 183.661 496.538 181.698C497.13 180.716 497.758 179.89 498.385 179.282C499.001 178.685 499.664 178.252 500.329 178.151C501.21 178.016 502.024 178.046 502.719 178.44C503.419 178.837 503.903 179.548 504.249 180.56C504.931 182.552 505.178 186.01 505.247 191.62C505.299 195.398 505.594 198.603 505.973 200.672C506.145 201.607 506.327 202.268 506.493 202.645C506.599 202.471 506.733 202.191 506.888 201.787C507.093 201.249 507.314 200.545 507.55 199.689C508.021 197.979 508.536 195.701 509.073 193.029C510.145 187.687 511.293 180.801 512.319 173.806C513.344 166.812 514.247 159.716 514.83 153.954C515.122 151.073 515.333 148.53 515.439 146.502C515.547 144.458 515.545 142.981 515.427 142.205C514.981 139.276 515.627 136.371 516.797 134.456C517.381 133.5 518.123 132.746 518.974 132.393C519.853 132.028 520.798 132.115 521.673 132.752C521.781 132.824 521.851 132.917 521.895 132.99C521.944 133.072 521.98 133.16 522.007 133.244C522.062 133.41 522.102 133.614 522.132 133.838C522.192 134.29 522.223 134.905 522.231 135.652C522.247 137.151 522.169 139.244 522.013 141.775C521.701 146.839 521.076 153.687 520.26 161.102C518.627 175.924 516.223 193.049 514.006 202.729C513.193 206.469 512.367 209.429 511.481 211.625C510.603 213.801 509.632 215.316 508.474 216.051C507.88 216.429 507.24 216.599 506.563 216.548C505.894 216.497 505.223 216.235 504.548 215.804C503.211 214.951 501.77 213.38 500.181 211.184L495.775 205.311ZM506.646 202.912C506.646 202.912 506.645 202.911 506.644 202.91C506.645 202.912 506.646 202.912 506.646 202.912ZM506.299 202.922C506.293 202.927 506.291 202.93 506.291 202.931C506.291 202.931 506.293 202.929 506.299 202.922Z" fill="#36290E" stroke="#36290E"/>
<path d="M400.918 257.332L400.917 257.341L400.917 257.349C400.817 258.404 400.786 259.231 400.828 259.861C400.871 260.504 400.986 260.877 401.122 261.077C401.228 261.233 401.36 261.309 401.612 261.304C401.904 261.299 402.325 261.179 402.916 260.9C403.246 260.729 403.65 260.307 404.101 259.566C404.546 258.837 404.999 257.859 405.45 256.665C406.35 254.28 407.218 251.092 407.972 247.449C409.48 240.165 410.524 231.12 410.489 223.162C410.478 220.934 410.444 219.217 410.344 217.925C410.243 216.613 410.078 215.811 409.847 215.361C409.738 215.149 409.632 215.049 409.541 215C409.454 214.951 409.33 214.922 409.132 214.947C408.7 214.999 408.08 215.281 407.17 215.815C402.843 218.439 399.571 220.158 397.403 220.831C396.857 221 396.364 221.109 395.931 221.145C395.502 221.181 395.099 221.148 394.754 221.003C394.393 220.852 394.123 220.589 393.969 220.227C393.822 219.881 393.795 219.478 393.841 219.051C393.932 218.203 394.332 217.096 394.992 215.747C395.658 214.387 396.611 212.737 397.849 210.789C400.323 206.893 403.956 201.771 408.76 195.331C415.623 186.019 421.103 179.512 424.99 176.037C425.964 175.166 426.847 174.476 427.636 173.979C428.419 173.485 429.139 173.161 429.78 173.056C430.438 172.949 431.047 173.07 431.517 173.504C431.967 173.919 432.215 174.552 432.331 175.309C432.357 175.482 432.331 175.659 432.294 175.814C432.254 175.975 432.192 176.151 432.114 176.336C431.958 176.706 431.722 177.153 431.421 177.662C430.818 178.682 429.929 179.994 428.825 181.512C426.615 184.549 423.518 188.44 420.059 192.514C417.387 195.675 415.312 198.182 413.766 200.188C412.215 202.2 411.217 203.682 410.68 204.8C410.136 205.932 410.125 206.564 410.323 206.966C410.532 207.391 411.059 207.754 412.09 208.117L412.104 208.122L412.118 208.128C413.068 208.529 413.869 209.004 414.526 209.646C415.186 210.292 415.679 211.085 416.042 212.094C416.759 214.082 416.982 216.951 416.984 221.274L416.984 221.276C416.915 238.105 414.694 252.945 410.632 262.826C409.634 265.339 408.789 267.309 407.997 268.782C407.21 270.246 406.444 271.283 405.578 271.863C404.671 272.47 403.707 272.544 402.642 272.208C401.613 271.882 400.468 271.168 399.133 270.187C397.778 269.192 396.697 267.59 395.9 265.784C395.1 263.971 394.568 261.911 394.337 259.95C394.106 257.994 394.169 256.1 394.591 254.63C395.007 253.178 395.828 251.986 397.211 251.775C397.852 251.678 398.444 251.715 398.967 251.921C399.495 252.13 399.916 252.498 400.228 253C400.835 253.975 401.031 255.453 400.918 257.332Z" fill="#36290E" stroke="#36290E"/>
<path d="M459.397 240.67L459.396 240.682L459.394 240.693C459.295 241.394 459.135 241.985 458.898 242.448C458.658 242.916 458.326 243.28 457.878 243.467C457.43 243.654 456.941 243.633 456.451 243.48C455.965 243.328 455.448 243.037 454.906 242.639C454.165 242.095 453.711 241.14 453.459 239.85C453.205 238.549 453.14 236.824 453.252 234.626C453.477 230.228 454.417 223.827 456.082 214.916C457.268 208.055 458.171 201.504 458.643 196.432C458.879 193.894 459.006 191.735 459.008 190.096C459.009 189.276 458.978 188.596 458.916 188.069C458.853 187.524 458.761 187.202 458.678 187.052C457.901 185.665 457.032 184.899 456.097 184.622C455.166 184.346 454.055 184.522 452.717 185.271C450.014 186.785 446.641 190.495 442.563 196.491C438.935 202.032 435.79 205.845 433.424 207.659C432.828 208.116 432.266 208.459 431.742 208.669C431.22 208.879 430.705 208.968 430.225 208.871C429.199 208.662 428.673 207.703 428.478 206.428C428.457 206.284 428.472 206.134 428.495 206.004C428.519 205.867 428.559 205.712 428.609 205.547C428.711 205.216 428.867 204.806 429.069 204.334C429.473 203.387 430.074 202.152 430.829 200.719C432.34 197.853 434.483 194.17 436.936 190.376C441.298 183.527 445.477 179.006 449.516 176.871C451.545 175.799 453.55 175.323 455.524 175.47C457.499 175.616 459.405 176.381 461.243 177.73C464.082 179.815 465.606 183.378 465.942 189.292C466.279 195.204 465.435 203.576 463.428 215.428C462.677 220.159 461.915 224.798 461.258 228.799C460.269 234.824 459.517 239.403 459.397 240.67Z" fill="#36290E" stroke="#36290E"/>
<path d="M363.781 220.825L363.781 220.825L363.789 220.814C365.898 218.109 368.361 215.548 370.659 213.605C371.808 212.633 372.923 211.81 373.938 211.199C374.944 210.594 375.888 210.176 376.691 210.053C377.791 209.886 378.747 209.835 379.544 210.112C380.384 210.404 380.967 211.029 381.388 212.012C381.8 212.974 382.077 214.32 382.3 216.139C382.524 217.966 382.7 220.313 382.892 223.299C383.531 232.698 382.428 247.374 380.765 259.616C379.934 265.739 378.959 271.272 377.987 275.246C377.502 277.229 377.013 278.845 376.534 279.957C376.296 280.509 376.048 280.968 375.784 281.288C375.541 281.584 375.169 281.895 374.692 281.819C374.058 281.735 373.538 281.368 373.129 280.807C372.725 280.253 372.412 279.49 372.171 278.548C371.689 276.662 371.46 273.924 371.474 270.335C371.502 263.147 372.503 252.408 374.505 237.932L374.505 237.929C375.031 234.288 375.262 231.362 375.244 229.105C375.226 226.832 374.956 225.294 374.522 224.388C374.308 223.942 374.073 223.686 373.845 223.554C373.627 223.428 373.368 223.386 373.039 223.46C372.336 223.618 371.388 224.286 370.23 225.589C367.942 228.165 365.103 232.904 362.044 239.526C358.99 246.136 355.732 254.587 352.593 264.558C350.165 272.81 347.499 280.379 345.213 285.926C344.07 288.698 343.018 290.975 342.133 292.582C341.692 293.384 341.284 294.034 340.92 294.499C340.738 294.731 340.558 294.93 340.379 295.08C340.208 295.223 339.995 295.36 339.75 295.398C339.18 295.484 338.638 295.564 338.166 295.562C337.689 295.559 337.211 295.474 336.815 295.167C336.416 294.859 336.179 294.388 336.047 293.786C335.917 293.188 335.879 292.409 335.919 291.411C336.067 287.73 337.304 280.579 339.652 267.014C339.836 265.95 340.027 264.846 340.225 263.702L340.225 263.699C341.571 256.152 342.754 248.829 343.561 243.138C343.964 240.292 344.273 237.858 344.462 236.01C344.556 235.086 344.62 234.312 344.65 233.71C344.681 233.094 344.676 232.694 344.645 232.493C344.509 231.597 343.94 230.921 343.065 230.465C342.18 230.005 341.006 229.788 339.762 229.837C337.24 229.936 334.709 231.101 333.845 233.091C332.932 235.308 331.295 236.514 329.673 236.485C328.013 236.456 326.65 235.144 326.312 232.924C326.22 232.324 326.418 231.648 326.749 230.983C327.088 230.306 327.6 229.575 328.231 228.838C329.493 227.364 331.273 225.821 333.23 224.586L333.236 224.582C337.859 221.754 341.902 221 345.087 222.601C348.256 224.195 350.362 228.02 351.378 233.817L351.378 233.817L351.38 233.828C351.653 235.626 351.874 236.968 352.085 237.899C352.19 238.366 352.288 238.711 352.383 238.95C352.408 239.014 352.431 239.065 352.451 239.106C352.51 239.032 352.586 238.924 352.677 238.77C353 238.228 353.403 237.328 353.937 236.061L353.936 236.061L353.94 236.052C355.334 232.9 359.864 226.139 363.781 220.825Z" fill="#36290E" stroke="#36290E"/>
<path d="M208.98 369.939L208.981 369.936C211.94 360.989 214.533 349.602 216.195 339.201C217.861 328.779 218.58 319.424 217.832 314.51C217.472 312.152 217.496 309.67 217.822 307.603C217.984 306.569 218.224 305.626 218.537 304.848C218.846 304.08 219.244 303.425 219.754 303.021C220.107 302.742 220.781 301.966 221.724 300.734C222.653 299.522 223.807 297.918 225.11 296.034C227.717 292.266 230.912 287.391 234.078 282.322C240.439 272.141 251.772 258.314 259.428 251.347C266.715 244.716 272.668 240.613 278.468 238.728C284.292 236.835 289.911 237.195 296.489 239.376L296.492 239.377C308.21 243.34 315.382 253.335 317.743 267.31C320.101 281.27 317.673 299.241 310.191 319.316L310.188 319.323C306.606 328.502 299.936 350.224 295.204 367.471L295.203 367.474C290.346 384.731 287.321 394.737 285.023 400.074C284.448 401.412 283.911 402.471 283.396 403.284C282.883 404.093 282.374 404.685 281.842 405.06C281.297 405.444 280.729 405.598 280.139 405.524C279.569 405.452 279.031 405.173 278.517 404.796C278.005 404.42 277.77 403.733 277.682 402.89C277.592 402.024 277.645 400.86 277.84 399.363C278.23 396.363 279.207 391.918 280.876 385.61C284.216 372.988 290.35 352.826 300.193 321.683C305.321 305.285 308.163 295.568 309.483 288.351C310.797 281.165 310.602 276.465 309.633 270.1C308.606 264.226 307.689 260.361 306.305 257.397C304.933 254.456 303.091 252.378 300.157 250.112L300.153 250.109C295.986 246.826 291.458 245.365 286.593 245.667C281.716 245.969 276.459 248.048 270.86 251.924C259.653 259.684 247.191 274.569 233.839 296.394C230.592 301.724 228.403 306.153 226.947 310.882C225.49 315.611 224.759 320.663 224.452 327.243L224.452 327.243L224.452 327.254C223.8 336.829 221.118 353.794 218.346 364.998C216.321 373.326 214.471 378.895 211.675 384.518C208.885 390.132 205.161 395.785 199.414 404.28L199.403 404.297L199.39 404.312C198.532 405.385 197.739 406.387 196.993 407.329C193.41 411.855 190.916 415.004 187.521 418.048C183.414 421.73 177.996 425.253 167.742 430.937C159.215 435.664 148.548 439.693 138.136 442.346C127.731 444.997 117.532 446.286 109.948 445.497C103.73 444.851 94.5475 442 86.2233 437.93C82.057 435.893 78.0899 433.543 74.8061 430.998C71.5423 428.469 68.9228 425.723 67.4712 422.874C61.7548 415.07 59.3884 402.393 60.0075 389.803C60.6278 377.191 64.2512 364.517 70.6721 356.747L70.6737 356.745C74.6068 352.035 79.2806 348.588 83.4905 346.907C87.6549 345.245 91.5878 345.244 93.7416 347.841C94.0583 348.223 94.2089 348.668 94.1577 349.132C94.1076 349.585 93.8719 349.996 93.5322 350.342C92.8595 351.026 91.6983 351.542 90.2262 351.766C87.1754 352.231 84.1265 354.242 81.3025 357.396C78.484 360.544 75.9286 364.79 73.8609 369.63C69.7238 379.314 67.5774 391.287 69.1211 401.431C70.1692 407.457 73.4863 413.949 78.17 419.674C82.8526 425.398 88.8735 430.322 95.2858 433.232C100.771 435.668 104.251 436.932 108.799 437.204C113.375 437.477 119.054 436.746 128.934 435.11C144.535 432.472 154.506 429.382 163.824 423.799L163.83 423.795L163.837 423.792C172.115 419.151 182.028 409.947 190.573 399.744C199.12 389.538 206.238 378.404 208.98 369.939Z" fill="#36290E" stroke="#36290E"/>
<path d="M425.309 304.736L425.309 304.736L425.299 304.743C424.377 305.384 423.497 305.76 422.669 305.844C421.827 305.929 421.068 305.709 420.423 305.212C419.172 304.249 418.417 302.306 418.07 299.775C417.369 294.666 418.256 286.63 420.965 277.251C422.9 270.275 424.478 265.74 426.263 262.69C428.069 259.603 430.092 258.03 432.87 256.974C439.937 254.289 447.696 257.975 449.971 265.46C450.095 265.801 450.072 266.226 449.996 266.65C449.916 267.101 449.76 267.636 449.545 268.237C449.113 269.439 448.423 270.956 447.548 272.677C445.797 276.124 443.278 280.439 440.527 284.785C437.774 289.132 434.782 293.52 432.081 297.114C429.395 300.687 426.954 303.531 425.309 304.736ZM426.815 289.103L426.825 289.107L426.827 289.108C426.839 289.109 426.888 289.109 426.996 289.067C427.15 289.005 427.358 288.879 427.62 288.67C428.14 288.255 428.786 287.585 429.517 286.709C430.973 284.962 432.707 282.473 434.368 279.787C436.028 277.102 437.606 274.237 438.754 271.743C439.328 270.495 439.792 269.349 440.104 268.369C440.418 267.384 440.566 266.611 440.547 266.087C440.514 265.719 440.388 265.44 440.199 265.231C440.007 265.017 439.724 264.848 439.337 264.749C438.551 264.546 437.395 264.648 435.989 265.183C435.46 265.383 434.841 265.861 434.162 266.611C433.49 267.353 432.792 268.325 432.099 269.458C430.713 271.723 429.369 274.593 428.304 277.458C427.237 280.326 426.458 283.162 426.187 285.36C426.051 286.464 426.047 287.373 426.178 288.034C426.313 288.707 426.559 289.001 426.815 289.103Z" fill="#36290E" stroke="#36290E"/>
<path d="M346.343 305.775L346.349 305.771C353.427 300.497 358.198 297.549 363.278 296.608C368.363 295.665 373.687 296.745 381.834 299.309C389.778 301.808 395.634 305.574 399.933 311.397C404.223 317.207 406.928 325.02 408.664 335.549L408.665 335.555C410.941 350.503 409.584 370.185 406.122 387.015C404.39 395.432 402.127 403.156 399.518 409.232C398.213 412.27 396.817 414.906 395.351 417.015C393.887 419.118 392.334 420.724 390.706 421.665L390.706 421.665L390.7 421.669C390.452 421.808 390.212 421.942 389.98 422.072C388.411 422.95 387.195 423.631 386.19 424.087C385.03 424.613 384.079 424.875 383.115 424.775C382.155 424.676 381.256 424.227 380.183 423.501C379.388 422.963 378.458 422.244 377.305 421.353C376.908 421.045 376.484 420.718 376.029 420.37L376.023 420.365C373.976 418.746 372.346 417.058 371.176 415.51C370.015 413.974 369.278 412.537 369.072 411.421C368.969 410.865 368.985 410.319 369.224 409.879C369.48 409.408 369.938 409.155 370.496 409.105C371.031 409.057 371.674 409.19 372.407 409.476C373.148 409.765 374.018 410.225 375.021 410.874L375.021 410.874L375.031 410.881C377.194 412.358 379.123 413.187 380.866 413.392C382.592 413.595 384.167 413.19 385.656 412.133C387.158 411.066 388.586 409.321 389.967 406.823C391.347 404.328 392.663 401.108 393.954 397.124L393.954 397.124L393.957 397.116C398.843 382.782 401.369 366.249 401.476 351.688C401.529 344.409 400.978 337.633 399.821 331.88C398.661 326.118 396.901 321.42 394.564 318.262L394.561 318.258C388.662 310.114 380.509 306.149 371.599 306.284C362.673 306.418 352.931 310.669 343.904 319.076C326.278 335.6 310.57 364.922 305.742 389.962C305.234 392.897 303.654 394.9 301.949 395.465C301.08 395.752 300.175 395.658 299.435 395.093C298.709 394.538 298.213 393.583 298.016 392.285C297.877 391.374 297.957 390.071 298.194 388.502C298.433 386.92 298.839 385.024 299.378 382.903C300.457 378.662 302.076 373.498 303.988 368.115C307.809 357.356 312.816 345.671 317.043 338.691C322.076 330.316 325.449 325.114 329.547 320.489C333.646 315.863 338.457 311.832 346.343 305.775Z" fill="#36290E" stroke="#36290E"/>
<path d="M435.739 338.376C434.43 338.575 433.321 338.381 432.46 337.771C431.601 337.164 431.064 336.197 430.787 335.003C430.237 332.637 430.66 329.191 431.868 325.115C434.294 316.932 439.976 305.912 448.101 295.199C455.533 285.271 461.941 277.97 466.614 273.852C468.935 271.807 470.888 270.492 472.361 270.076C473.103 269.867 473.813 269.861 474.385 270.214C474.963 270.57 475.27 271.209 475.389 271.99C475.408 272.117 475.378 272.223 475.365 272.264C475.348 272.318 475.326 272.37 475.305 272.412C475.263 272.499 475.206 272.598 475.14 272.702C475.007 272.913 474.814 273.191 474.571 273.524C474.085 274.193 473.379 275.114 472.511 276.226C471.668 277.308 470.663 278.583 469.552 279.992C468.384 281.474 467.098 283.105 465.76 284.817C460.519 291.521 454.409 299.539 450.927 305.26C447.418 311.025 445.945 313.484 444.967 315.913C444.247 317.704 443.797 319.472 443.016 322.54C442.734 323.649 442.408 324.928 442.011 326.439C441.569 328.122 441.431 329.123 441.487 329.903C441.541 330.668 441.783 331.26 442.206 332.142C442.264 332.262 442.324 332.386 442.386 332.515C443.262 334.322 444.624 337.13 445.996 343.707C447.459 350.715 448.096 355.757 447.999 360.365C447.902 364.976 447.069 369.126 445.623 374.348C444.205 379.667 443.039 383.014 441.594 385.016C440.858 386.034 440.04 386.721 439.07 387.142C438.109 387.558 437.036 387.697 435.816 387.681C433.619 387.739 431.826 387.171 430.293 385.708C428.785 384.268 427.567 381.999 426.41 378.744C425.515 376.358 424.867 373.863 424.581 371.765C424.438 370.717 424.384 369.754 424.439 368.946C424.493 368.157 424.657 367.441 425.016 366.955C425.27 366.61 425.526 366.307 425.793 366.077C426.061 365.847 426.368 365.667 426.722 365.617C427.46 365.511 428.097 365.992 428.697 366.724C429.317 367.48 430.029 368.668 430.913 370.344C431.801 372.026 432.878 374.23 434.225 377.039C434.78 378.143 435.274 378.619 435.64 378.755C435.926 378.86 436.267 378.798 436.716 378.302C437.171 377.799 437.637 376.942 438.081 375.754C438.522 374.575 438.927 373.11 439.28 371.424C440.695 364.671 441.245 354.546 440.015 345.61C439.609 342.946 438.989 341.026 438.225 339.828C437.472 338.647 436.636 338.239 435.739 338.376Z" fill="#36290E" stroke="#36290E"/>
</g>
</g>
<defs>
<clipPath id="clip0_792_700">
<rect width="355.849" height="677.942" fill="white" transform="translate(660.593 0.547363) rotate(76.9104)"/>
</clipPath>
<clipPath id="clip1_792_700">
<rect width="675.912" height="367.397" fill="white" transform="translate(11.3367 110.358) rotate(-8.65994)"/>
</clipPath>
</defs>
</svg>
