<svg width="741" height="500" viewBox="0 0 741 500" fill="none" xmlns="http://www.w3.org/2000/svg">
<g clip-path="url(#clip0_1019_878)">
<g clip-path="url(#clip1_1019_878)">
<path d="M404.399 135.492L404.405 135.488C412.379 131.139 443.974 109.293 473.815 87.6884C499.866 68.755 543.406 43.7401 563.308 35.973C568.074 34.0515 576.405 32.3255 584.656 31.2329C592.904 30.1408 601.168 29.6688 605.801 30.2947C612.059 31.0738 618.399 33.8308 623.624 37.6097C628.845 41.3858 633 46.2164 634.834 51.1809L634.837 51.1896C636.738 56.6431 637.057 64.0242 636.2 70.564C635.77 73.8388 635.043 76.9239 634.059 79.4699C633.081 82.0003 631.827 84.0584 630.303 85.2103C628.597 86.5192 627.244 87.4677 626.243 87.9806C625.748 88.234 625.29 88.4082 624.89 88.4387C624.684 88.4545 624.47 88.4341 624.27 88.3456C624.062 88.2539 623.901 88.1031 623.791 87.912C623.585 87.5578 623.565 87.0914 623.615 86.6108C623.668 86.1099 623.81 85.4943 624.028 84.7686C624.463 83.3168 625.225 81.3475 626.285 78.827C628.864 71.9749 629.249 65.9824 627.426 57.4273C626.218 52.0924 625.287 48.9933 623.613 46.6988C621.95 44.4179 619.512 42.8815 615.127 40.7985L615.123 40.797C610.612 38.6161 607.706 37.5986 603.511 37.5982C599.269 37.5979 593.704 38.637 583.874 40.6598L583.873 40.66C568.373 43.8052 556.479 48.2291 541.709 56.2351L541.704 56.2375C531.266 61.7542 511.532 73.9991 493.717 85.5998C484.812 91.3983 476.393 97.0317 469.864 101.577C466.599 103.85 463.809 105.849 461.667 107.46C459.517 109.077 458.054 110.279 457.409 110.969C455.735 112.841 451.611 116.082 446.15 120.001C440.666 123.935 433.786 128.586 426.562 133.279C412.119 142.662 396.273 152.235 387.447 156.606L387.444 156.608C383.544 158.508 377.019 162.118 372.988 164.818L372.982 164.822C362.677 171.518 346.608 180.465 331.335 188.303C316.072 196.135 301.554 202.886 294.363 205.17L294.361 205.17C284.574 208.235 277.686 209.693 272.353 209.403C266.971 209.11 263.197 207.038 259.651 203.154C256.05 199.21 254.897 193.704 255.952 187.666C257.005 181.63 260.266 175.027 265.545 168.8C268.339 165.477 270.688 163.204 272.482 161.892C273.375 161.239 274.159 160.802 274.811 160.605C275.446 160.414 276.115 160.411 276.559 160.891C276.97 161.336 277.011 162.023 276.896 162.732C276.776 163.473 276.461 164.396 275.958 165.477C274.95 167.645 273.144 170.539 270.444 174.047L270.441 174.051C266.707 178.808 264.727 181.957 263.677 184.395C262.637 186.808 262.501 188.54 262.501 190.5C262.501 191.408 262.786 192.547 263.289 193.783C263.789 195.012 264.49 196.303 265.289 197.507C266.087 198.712 266.976 199.817 267.846 200.678C268.726 201.549 269.546 202.128 270.203 202.342C274.047 203.592 281.362 203.51 290.277 199.053C291.971 198.206 293.631 197.418 295.484 196.538C303.482 192.743 315.082 187.237 348.608 167.866C374.195 152.95 399.313 138.367 404.399 135.492Z" fill="#36290E" stroke="#36290E"/>
<path d="M543.184 140.014L543.184 140.014L543.173 140.009C541.434 139.078 540.102 138.093 539.358 136.759C538.602 135.405 538.5 133.78 539.014 131.682C539.525 129.593 540.661 126.977 542.454 123.585C544.25 120.188 546.722 115.981 549.927 110.705C555.269 101.754 559.741 95.5212 563.018 92.2929C563.839 91.4835 564.598 90.8506 565.287 90.4097C565.97 89.9731 566.623 89.6994 567.228 89.6638C567.864 89.6264 568.415 89.8562 568.825 90.3487C569.213 90.8154 569.447 91.4846 569.57 92.2949C569.592 92.4349 569.578 92.5816 569.557 92.7095C569.535 92.8446 569.498 92.9951 569.451 93.1561C569.357 93.4783 569.211 93.8743 569.023 94.3287C568.646 95.2391 568.086 96.4192 567.385 97.7781C565.983 100.497 564.004 103.957 561.769 107.455C558.401 112.953 555.879 117.069 554.051 120.234C552.219 123.407 551.1 125.595 550.521 127.244C549.948 128.879 549.923 129.933 550.222 130.866C550.534 131.838 551.21 132.735 552.212 134.049L552.22 134.06L552.228 134.072C553.089 135.34 553.768 136.493 554.21 138.151C554.648 139.795 554.847 141.908 554.804 145.097C554.718 151.469 553.663 162.282 551.495 182.539C550.541 191.951 546.044 197.34 541.163 197.871C538.719 198.137 536.279 197.159 534.294 194.978C532.315 192.804 530.786 189.438 530.093 184.885C529.857 183.336 529.727 182.048 529.727 180.99C529.728 179.937 529.857 179.071 530.175 178.393C530.502 177.693 531.019 177.219 531.721 176.949C532.398 176.688 533.224 176.626 534.179 176.683C535.758 176.729 537.04 177.336 537.922 178.499C538.792 179.644 539.231 181.272 539.268 183.292L539.268 183.3L539.268 183.308C539.246 184.83 539.517 186.154 539.925 187.054C540.13 187.506 540.357 187.823 540.573 188.012C540.76 188.174 540.916 188.223 541.045 188.218C541.048 188.215 541.051 188.212 541.055 188.208C541.1 188.16 541.165 188.071 541.245 187.924C541.405 187.632 541.585 187.188 541.777 186.589C542.162 185.397 542.573 183.676 542.984 181.539C543.805 177.269 544.614 171.39 545.197 164.886L545.197 164.885C546.136 154.622 546.554 148.839 546.252 145.366C546.101 143.639 545.776 142.542 545.289 141.766C544.808 141.001 544.138 140.497 543.184 140.014ZM541.024 188.237C541.024 188.237 541.025 188.236 541.026 188.235C541.025 188.236 541.024 188.236 541.024 188.237Z" fill="#36290E" stroke="#36290E"/>
<path d="M613.3 107.908L613.304 107.905C624.444 99.1512 636.053 96.662 647.145 99.2864C658.217 101.906 668.708 109.604 677.679 121.095C695.619 144.074 707.591 182.349 706.057 226.239L706.057 226.24C705.521 240.382 703.9 254.183 701.615 265.611C699.335 277.013 696.38 286.126 693.135 290.834C691.918 292.613 689.542 294.247 686.703 295.623C683.846 297.007 680.452 298.162 677.119 298.949C673.789 299.736 670.496 300.162 667.843 300.074C666.517 300.03 665.328 299.856 664.367 299.521C663.417 299.189 662.635 298.679 662.204 297.924C661.859 297.403 661.68 296.828 661.885 296.258C662.084 295.704 662.593 295.311 663.24 295.015C664.535 294.422 666.798 294.038 670.074 293.796C675.001 293.422 678.975 292.26 682.235 289.826C685.496 287.391 688.096 283.645 690.199 278.003C694.416 266.689 696.574 247.936 698.18 217.427L698.18 217.424C698.87 205.728 697.159 190.592 694.025 176.202C690.891 161.808 686.344 148.218 681.393 139.6C676.707 131.567 670.197 123.691 663.656 117.648C660.386 114.626 657.115 112.07 654.069 110.182C651.016 108.29 648.221 107.09 645.896 106.744L645.887 106.742C640.729 105.879 633.629 107.016 626.393 110.049L626.385 110.052C621.538 111.992 618.355 113.729 615.188 116.923C612.002 120.138 608.815 124.847 604.011 132.78C592.375 152.274 588.016 165.222 587.523 183.353L587.523 183.357C587.369 187.785 587.504 190.825 588.084 193.143C588.657 195.433 589.668 197.03 591.315 198.564L591.323 198.572L591.332 198.58C592.953 200.242 593.959 201.762 594.405 203.649C594.847 205.518 594.725 207.691 594.21 210.627L594.209 210.635L594.207 210.643C593.76 212.788 593.076 214.496 592.228 215.722C591.38 216.947 590.341 217.726 589.187 217.921C588.022 218.117 586.851 217.698 585.792 216.756C584.739 215.82 583.771 214.35 582.96 212.363L582.959 212.36C582.151 210.353 581.391 209.125 580.612 208.584C580.244 208.329 579.879 208.232 579.484 208.273C579.076 208.317 578.592 208.513 578.014 208.93C576.847 209.769 575.427 211.402 573.64 213.969C571.86 216.524 569.747 219.959 567.185 224.36C560.931 235.159 557.3 242.768 555.617 249.758C553.937 256.73 554.188 263.121 555.769 271.5L555.77 271.503C557.606 281.554 557.079 291.874 553.838 307.595L553.837 307.602L553.835 307.609C552.432 313.539 551.031 319.207 549.845 323.526C549.252 325.685 548.71 327.514 548.247 328.873C548.016 329.552 547.801 330.122 547.607 330.56C547.425 330.972 547.23 331.34 547.018 331.549C546.417 332.15 545.813 332.544 545.21 332.693C544.585 332.848 544 332.727 543.499 332.374C543.015 332.033 542.633 331.495 542.336 330.847C542.036 330.193 541.805 329.394 541.643 328.488C540.995 324.875 541.382 319.308 543.144 313.644C546.037 303.931 547.715 294.446 548.093 286.075C548.472 277.695 547.546 270.472 545.265 265.256L545.265 265.256L545.261 265.247C541.57 256.346 536.244 251.342 530.465 250.241C524.699 249.143 518.273 251.895 512.286 258.978L512.284 258.981C501.065 272.084 493.012 294.015 490.139 312.131C488.702 321.192 488.571 329.234 489.95 334.706C490.64 337.443 491.693 339.477 493.089 340.692C494.459 341.885 496.212 342.335 498.445 341.807C501.044 341.193 503.249 339.193 504.951 336.25C506.652 333.312 507.819 329.485 508.357 325.339C509.436 317.029 507.973 307.597 503.436 301.641L503.436 301.641L503.432 301.636C502.84 300.836 502.392 300.15 502.131 299.568C501.876 299 501.747 298.417 501.979 297.899C502.215 297.375 502.739 297.096 503.338 296.932C503.947 296.765 504.758 296.683 505.757 296.648C507.924 296.517 509.829 297.943 511.376 300.19C512.934 302.454 514.213 305.659 515.121 309.36C516.938 316.763 517.305 326.284 515.349 334.555C514.143 340.151 513.154 343.493 511.382 345.761C509.589 348.056 507.045 349.196 502.962 350.56L502.962 350.56C498.732 351.967 494.929 352.003 491.678 350.785C488.425 349.566 485.782 347.114 483.835 343.65C479.953 336.742 478.806 325.756 481.075 312.115C481.272 310.896 481.459 309.694 481.645 308.503C482.786 301.183 483.867 294.255 486.672 286.172C489.936 276.768 495.528 265.816 506.242 250.812L506.257 250.79L506.276 250.77C514.862 241.154 528.133 238.54 538.863 244.713C538.864 244.714 538.865 244.714 538.866 244.715L546.681 249.127L549.143 242.904C549.143 242.903 549.143 242.902 549.144 242.902C551.48 236.844 557.297 226.313 563.039 216.994C565.913 212.329 568.777 207.954 571.187 204.58C572.391 202.894 573.486 201.452 574.416 200.347C575.328 199.263 576.12 198.455 576.72 198.082C577.845 197.342 578.76 195.916 579.316 193.75C579.871 191.588 580.053 188.74 579.757 185.248L579.756 185.241C579.299 178.718 581.54 167.391 585.011 155.941C588.485 144.477 593.224 132.786 597.83 125.521C601.531 119.542 608.542 111.723 613.3 107.908Z" fill="#36290E" stroke="#36290E"/>
<path d="M495.51 204.764L491.67 214.534L491.67 214.536C490.668 217.059 489.725 219.141 488.82 220.786C487.918 222.425 487.04 223.659 486.158 224.461C485.271 225.268 484.334 225.679 483.347 225.553C482.379 225.43 481.49 224.805 480.656 223.835L480.64 223.817L480.626 223.797C480.516 223.641 480.465 223.428 480.433 223.263C480.396 223.072 480.367 222.834 480.343 222.557C480.297 222.003 480.27 221.255 480.261 220.342C480.243 218.513 480.295 215.987 480.408 212.95C480.634 206.873 481.103 198.728 481.741 189.97L481.741 189.97L481.742 189.961C482.527 181.321 483.069 173.245 483.295 167.188C483.407 164.158 483.44 161.641 483.386 159.813C483.359 158.897 483.31 158.165 483.24 157.633C483.205 157.366 483.166 157.161 483.126 157.012C483.098 156.909 483.075 156.855 483.064 156.833C482.936 156.73 482.66 156.613 482.177 156.552C481.671 156.487 481.016 156.492 480.249 156.577C478.718 156.747 476.803 157.229 474.865 158.039L474.85 158.045L474.835 158.05C472.74 158.769 470.964 159.08 469.58 159.039C468.218 158.998 467.118 158.607 466.56 157.784C465.983 156.935 466.117 155.837 466.739 154.714C467.364 153.584 468.533 152.317 470.264 150.988C474.039 147.898 477.465 146.332 480.444 146.277C483.465 146.221 485.929 147.722 487.729 150.529C489.514 153.315 490.66 157.398 491.121 162.597C491.582 167.805 491.361 174.172 490.376 181.561C489.837 185.762 489.595 189.204 489.589 191.776C489.585 193.063 489.641 194.124 489.746 194.949C489.853 195.789 490.005 196.336 490.164 196.629C490.202 196.699 490.235 196.744 490.261 196.773C490.268 196.781 490.274 196.788 490.279 196.793C490.326 196.77 490.416 196.705 490.544 196.552C490.678 196.392 490.83 196.163 490.998 195.852C491.677 194.599 492.497 192.248 493.391 188.645C494.019 185.75 495.089 183.113 496.273 181.15C496.865 180.169 497.493 179.343 498.12 178.735C498.736 178.137 499.399 177.704 500.064 177.603C500.945 177.469 501.759 177.499 502.454 177.893C503.154 178.29 503.638 179.001 503.984 180.013C504.666 182.004 504.913 185.462 504.982 191.072C505.034 194.851 505.328 198.055 505.708 200.124C505.88 201.06 506.062 201.721 506.227 202.097C506.334 201.923 506.468 201.644 506.623 201.239C506.827 200.702 507.049 199.997 507.285 199.142C507.755 197.432 508.271 195.154 508.808 192.482C509.88 187.14 511.028 180.254 512.053 173.259C513.079 166.265 513.982 159.168 514.565 153.407C514.857 150.526 515.068 147.982 515.174 145.954C515.282 143.911 515.28 142.433 515.162 141.657C514.716 138.729 515.362 135.824 516.532 133.908C517.115 132.953 517.858 132.198 518.709 131.845C519.588 131.481 520.533 131.568 521.408 132.204C521.516 132.276 521.585 132.369 521.629 132.443C521.679 132.524 521.715 132.613 521.742 132.696C521.797 132.863 521.837 133.066 521.867 133.291C521.927 133.743 521.958 134.357 521.966 135.105C521.982 136.603 521.904 138.697 521.748 141.227C521.436 146.291 520.811 153.14 519.995 160.555C518.362 175.377 515.958 192.501 513.741 202.182C512.927 205.922 512.102 208.882 511.216 211.078C510.338 213.254 509.367 214.768 508.209 215.504C507.615 215.881 506.975 216.051 506.298 216C505.629 215.95 504.957 215.687 504.283 215.257C502.946 214.404 501.505 212.832 499.916 210.636L495.51 204.764ZM506.38 202.365C506.38 202.365 506.38 202.364 506.379 202.363C506.38 202.364 506.38 202.365 506.38 202.365ZM506.033 202.374C506.028 202.379 506.026 202.383 506.026 202.383C506.026 202.384 506.028 202.381 506.033 202.374Z" fill="#36290E" stroke="#36290E"/>
<path d="M400.653 256.785L400.652 256.793L400.651 256.802C400.552 257.856 400.521 258.683 400.563 259.314C400.605 259.957 400.721 260.329 400.856 260.529C400.963 260.686 401.095 260.762 401.347 260.757C401.639 260.751 402.06 260.631 402.651 260.352C402.98 260.181 403.385 259.759 403.836 259.019C404.28 258.29 404.734 257.311 405.185 256.118C406.085 253.733 406.952 250.545 407.707 246.902C409.215 239.617 410.259 230.572 410.224 222.615C410.213 220.386 410.179 218.67 410.079 217.377C409.978 216.065 409.812 215.264 409.582 214.814C409.473 214.601 409.366 214.502 409.276 214.452C409.189 214.404 409.065 214.375 408.867 214.399C408.435 214.452 407.815 214.733 406.905 215.267C402.578 217.892 399.306 219.611 397.138 220.283C396.592 220.453 396.099 220.561 395.666 220.598C395.237 220.633 394.833 220.601 394.489 220.456C394.128 220.305 393.858 220.042 393.704 219.68C393.557 219.334 393.53 218.931 393.576 218.504C393.667 217.655 394.067 216.549 394.727 215.2C395.393 213.84 396.346 212.19 397.584 210.242C400.058 206.345 403.691 201.223 408.495 194.784C415.358 185.472 420.837 178.965 424.725 175.489C425.699 174.619 426.582 173.929 427.371 173.432C428.154 172.938 428.873 172.614 429.515 172.509C430.173 172.401 430.782 172.522 431.252 172.956C431.702 173.371 431.95 174.005 432.066 174.762C432.092 174.935 432.066 175.112 432.029 175.266C431.989 175.428 431.927 175.603 431.849 175.788C431.693 176.158 431.457 176.605 431.156 177.114C430.553 178.134 429.664 179.447 428.56 180.964C426.35 184.002 423.253 187.892 419.794 191.966C417.122 195.128 415.047 197.634 413.501 199.64C411.95 201.652 410.952 203.135 410.415 204.252C409.871 205.385 409.86 206.016 410.058 206.419C410.267 206.844 410.793 207.207 411.824 207.569L411.839 207.574L411.853 207.58C412.803 207.981 413.604 208.456 414.261 209.099C414.921 209.744 415.414 210.538 415.777 211.546C416.493 213.535 416.717 216.403 416.719 220.726L416.719 220.729C416.65 237.558 414.429 252.397 410.367 262.278C409.369 264.792 408.524 266.762 407.732 268.235C406.945 269.699 406.179 270.735 405.313 271.315C404.406 271.923 403.441 271.997 402.377 271.66C401.348 271.335 400.203 270.62 398.867 269.639C397.512 268.644 396.431 267.043 395.635 265.237C394.835 263.424 394.303 261.364 394.072 259.402C393.841 257.447 393.904 255.552 394.326 254.082C394.742 252.63 395.562 251.439 396.946 251.228C397.586 251.131 398.179 251.167 398.701 251.374C399.23 251.583 399.651 251.951 399.963 252.452C400.57 253.428 400.766 254.906 400.653 256.785Z" fill="#36290E" stroke="#36290E"/>
<path d="M459.132 240.123L459.131 240.135L459.129 240.146C459.03 240.846 458.87 241.437 458.633 241.901C458.393 242.369 458.061 242.732 457.613 242.919C457.165 243.107 456.676 243.086 456.186 242.932C455.7 242.78 455.183 242.489 454.641 242.091C453.9 241.547 453.446 240.593 453.194 239.302C452.94 238.002 452.875 236.277 452.987 234.079C453.211 229.681 454.152 223.28 455.817 214.368C457.003 207.508 457.906 200.957 458.378 195.884C458.614 193.347 458.741 191.188 458.743 189.549C458.744 188.729 458.713 188.049 458.651 187.522C458.587 186.976 458.496 186.654 458.412 186.505C457.636 185.118 456.767 184.351 455.832 184.074C454.901 183.798 453.79 183.974 452.451 184.724C449.749 186.238 446.376 189.947 442.298 195.943C438.67 201.484 435.525 205.298 433.159 207.112C432.563 207.568 432 207.912 431.477 208.122C430.955 208.331 430.44 208.421 429.96 208.324C428.934 208.115 428.407 207.155 428.213 205.881C428.191 205.737 428.207 205.586 428.23 205.457C428.254 205.319 428.294 205.165 428.344 205C428.446 204.669 428.602 204.259 428.804 203.786C429.208 202.84 429.809 201.604 430.564 200.172C432.075 197.305 434.218 193.623 436.671 189.829C441.033 182.98 445.212 178.459 449.251 176.324C451.28 175.252 453.285 174.776 455.259 174.922C457.234 175.069 459.14 175.834 460.977 177.183C463.817 179.268 465.341 182.83 465.677 188.744C466.013 194.656 465.17 203.029 463.163 214.881C462.412 219.612 461.65 224.251 460.993 228.251C460.004 234.277 459.252 238.856 459.132 240.123Z" fill="#36290E" stroke="#36290E"/>
<path d="M363.516 220.278L363.515 220.278L363.524 220.267C365.633 217.562 368.096 215.001 370.394 213.057C371.543 212.086 372.658 211.263 373.673 210.652C374.678 210.047 375.623 209.628 376.426 209.506C377.526 209.338 378.482 209.287 379.279 209.565C380.118 209.857 380.702 210.481 381.123 211.465C381.535 212.427 381.811 213.773 382.035 215.592C382.259 217.418 382.435 219.766 382.627 222.752C383.266 232.151 382.163 246.827 380.5 259.068C379.669 265.192 378.694 270.725 377.722 274.698C377.237 276.682 376.748 278.298 376.269 279.41C376.031 279.962 375.782 280.421 375.519 280.741C375.276 281.036 374.904 281.348 374.427 281.272C373.793 281.188 373.273 280.821 372.864 280.26C372.46 279.706 372.147 278.942 371.906 278C371.423 276.115 371.195 273.377 371.209 269.788C371.237 262.6 372.238 251.861 374.24 237.384L374.24 237.381C374.765 233.741 374.997 230.815 374.979 228.558C374.961 226.285 374.691 224.747 374.257 223.841C374.043 223.395 373.808 223.139 373.579 223.007C373.362 222.88 373.103 222.839 372.774 222.913C372.071 223.07 371.123 223.739 369.965 225.042C367.676 227.617 364.838 232.357 361.778 238.979C358.725 245.588 355.467 254.039 352.328 264.01C349.9 272.262 347.234 279.832 344.948 285.378C343.805 288.15 342.752 290.427 341.868 292.035C341.426 292.837 341.019 293.487 340.655 293.952C340.473 294.184 340.292 294.382 340.114 294.532C339.943 294.676 339.73 294.813 339.485 294.85C338.915 294.937 338.373 295.017 337.9 295.014C337.423 295.012 336.946 294.927 336.549 294.62C336.15 294.311 335.913 293.841 335.782 293.239C335.651 292.641 335.614 291.861 335.654 290.864C335.802 287.183 337.039 280.032 339.387 266.466C339.571 265.402 339.762 264.299 339.96 263.154L339.96 263.152C341.306 255.605 342.489 248.282 343.296 242.591C343.699 239.745 344.008 237.311 344.196 235.463C344.291 234.538 344.354 233.765 344.385 233.162C344.416 232.546 344.41 232.146 344.38 231.946C344.243 231.049 343.675 230.373 342.8 229.918C341.915 229.457 340.741 229.241 339.496 229.289C336.975 229.389 334.443 230.553 333.58 232.543C332.667 234.761 331.03 235.966 329.408 235.938C327.748 235.909 326.385 234.597 326.047 232.377C325.955 231.777 326.152 231.101 326.484 230.436C326.823 229.758 327.335 229.027 327.966 228.291C329.228 226.817 331.008 225.273 332.965 224.038L332.971 224.035C337.614 221.194 342.446 220.378 346.011 221.907C349.636 223.462 351.747 227.342 351.117 233.408L351.116 233.422L351.114 233.436C350.585 236.713 350.348 239.104 350.339 240.695C350.334 241.494 350.387 242.063 350.477 242.433C350.517 242.601 350.561 242.707 350.596 242.768C350.646 242.737 350.718 242.681 350.812 242.585C351.047 242.342 351.34 241.927 351.679 241.322C352.351 240.124 353.151 238.281 354.021 235.856C354.548 233.707 355.96 231.13 357.695 228.461C359.301 225.991 361.215 223.397 363.032 220.934C363.194 220.714 363.355 220.495 363.516 220.278ZM350.633 242.82C350.633 242.82 350.632 242.82 350.632 242.819L350.633 242.82Z" fill="#36290E" stroke="#36290E"/>
<path d="M208.715 369.392L208.716 369.389C211.675 360.442 214.267 349.054 215.93 338.654C217.596 328.232 218.315 318.877 217.566 313.963C217.207 311.605 217.231 309.123 217.557 307.056C217.719 306.022 217.959 305.079 218.272 304.301C218.58 303.533 218.979 302.877 219.489 302.474C219.841 302.195 220.516 301.418 221.459 300.187C222.388 298.975 223.542 297.371 224.845 295.487C227.452 291.719 230.647 286.844 233.813 281.775C240.174 271.594 251.507 257.767 259.163 250.8C266.45 244.169 272.403 240.065 278.203 238.18C284.027 236.288 289.645 236.647 296.224 238.829L296.227 238.83C307.945 242.793 315.117 252.788 317.478 266.763C319.836 280.722 317.408 298.693 309.926 318.769L309.923 318.776C306.341 327.955 299.671 349.676 294.939 366.923L294.938 366.927C290.081 384.183 287.056 394.19 284.758 399.527C284.182 400.864 283.646 401.924 283.131 402.737C282.618 403.546 282.109 404.138 281.577 404.513C281.032 404.897 280.464 405.051 279.874 404.977C279.304 404.905 278.766 404.626 278.251 404.248C277.74 403.873 277.505 403.186 277.417 402.343C277.327 401.476 277.38 400.312 277.574 398.815C277.965 395.816 278.942 391.371 280.611 385.063C283.951 372.44 290.084 352.279 299.928 321.136C305.056 304.738 307.898 295.02 309.218 287.803C310.532 280.618 310.337 275.917 309.367 269.553C308.341 263.679 307.424 259.814 306.04 256.849C304.668 253.909 302.826 251.831 299.892 249.564L299.888 249.562C295.721 246.279 291.192 244.818 286.328 245.119C281.451 245.422 276.194 247.5 270.595 251.377C259.388 259.137 246.926 274.021 233.573 295.846C230.326 301.176 228.138 305.606 226.682 310.335C225.225 315.064 224.494 320.115 224.187 326.696L224.187 326.696L224.187 326.707C223.535 336.282 220.853 353.247 218.081 364.45C216.056 372.779 214.205 378.348 211.41 383.971C208.62 389.584 204.896 395.237 199.149 403.733L199.138 403.749L199.125 403.765C198.267 404.838 197.473 405.84 196.728 406.782C193.145 411.308 190.651 414.457 187.256 417.501C183.149 421.183 177.731 424.705 167.477 430.39C158.949 435.117 148.283 439.146 137.871 441.799C127.465 444.45 117.267 445.738 109.683 444.95C103.465 444.304 94.2824 441.452 85.9581 437.382C81.7918 435.345 77.8247 432.995 74.541 430.451C71.2772 427.921 68.6577 425.176 67.206 422.327C61.4897 414.523 59.1233 401.845 59.7424 389.256C60.3627 376.644 63.9861 363.969 70.407 356.2L70.4086 356.198C74.3417 351.488 79.0155 348.04 83.2254 346.36C87.3897 344.698 91.3227 344.697 93.4765 347.294C93.7931 347.675 93.9437 348.121 93.8925 348.585C93.8425 349.038 93.6068 349.449 93.267 349.795C92.5944 350.479 91.4332 350.995 89.9611 351.219C86.9102 351.684 83.8614 353.694 81.0374 356.849C78.2189 359.997 75.6634 364.242 73.5958 369.082C69.4587 378.766 67.3123 390.74 68.8559 400.884C69.9041 406.91 73.2211 413.401 77.9049 419.127C82.5875 424.851 88.6083 429.775 95.0206 432.684C100.506 435.121 103.986 436.385 108.533 436.656C113.11 436.929 118.788 436.198 128.668 434.562C144.269 431.924 154.241 428.835 163.559 423.252L163.565 423.248L163.572 423.244C171.85 418.604 181.763 409.4 190.308 399.196C198.855 388.99 205.973 377.857 208.715 369.392Z" fill="#36290E" stroke="#36290E"/>
<path d="M425.044 304.188L425.044 304.189L425.034 304.196C424.112 304.837 423.232 305.213 422.404 305.297C421.562 305.382 420.803 305.161 420.158 304.665C418.906 303.702 418.152 301.759 417.805 299.228C417.104 294.119 417.991 286.083 420.7 276.704C422.635 269.728 424.213 265.192 425.998 262.142C427.804 259.055 429.827 257.482 432.605 256.427C439.671 253.742 447.431 257.428 449.706 264.912C449.83 265.254 449.807 265.679 449.731 266.102C449.651 266.554 449.495 267.089 449.28 267.689C448.848 268.891 448.158 270.408 447.283 272.13C445.532 275.577 443.013 279.891 440.262 284.238C437.509 288.585 434.517 292.973 431.816 296.566C429.13 300.14 426.689 302.984 425.044 304.188ZM426.55 288.556L426.56 288.56L426.562 288.561C426.574 288.562 426.623 288.562 426.731 288.519C426.885 288.458 427.093 288.331 427.355 288.123C427.875 287.708 428.521 287.037 429.252 286.161C430.708 284.415 432.442 281.926 434.103 279.24C435.763 276.555 437.341 273.689 438.489 271.195C439.063 269.948 439.526 268.801 439.839 267.822C440.153 266.837 440.301 266.064 440.282 265.54C440.249 265.171 440.122 264.893 439.934 264.684C439.742 264.47 439.459 264.301 439.072 264.201C438.286 263.999 437.13 264.101 435.724 264.635C435.195 264.836 434.576 265.314 433.897 266.064C433.225 266.806 432.527 267.777 431.834 268.91C430.448 271.176 429.104 274.045 428.039 276.91C426.972 279.778 426.193 282.614 425.922 284.813C425.785 285.916 425.781 286.825 425.913 287.486C426.048 288.159 426.294 288.454 426.55 288.556Z" fill="#36290E" stroke="#36290E"/>
<path d="M346.078 305.228L346.084 305.224C353.162 299.95 357.933 297.002 363.013 296.06C368.098 295.117 373.422 296.197 381.569 298.762C389.513 301.261 395.369 305.027 399.668 310.85C403.957 316.66 406.663 324.473 408.399 335.002L408.4 335.008C410.676 349.956 409.319 369.638 405.857 386.467C404.125 394.885 401.862 402.609 399.253 408.685C397.948 411.722 396.552 414.359 395.085 416.467C393.622 418.571 392.069 420.177 390.441 421.118L390.441 421.118L390.435 421.122C390.186 421.26 389.947 421.395 389.714 421.525C388.145 422.403 386.93 423.083 385.925 423.539C384.765 424.066 383.814 424.327 382.85 424.228C381.89 424.129 380.991 423.68 379.918 422.953C379.122 422.415 378.193 421.696 377.04 420.805C376.643 420.498 376.218 420.17 375.764 419.822L375.758 419.818C373.711 418.199 372.081 416.511 370.911 414.963C369.75 413.427 369.013 411.99 368.806 410.873C368.704 410.317 368.72 409.772 368.959 409.332C369.215 408.86 369.673 408.607 370.231 408.557C370.765 408.509 371.409 408.642 372.142 408.929C372.883 409.218 373.753 409.678 374.756 410.327L374.756 410.327L374.766 410.334C376.929 411.81 378.858 412.64 380.601 412.845C382.326 413.048 383.902 412.643 385.39 411.585C386.892 410.518 388.321 408.774 389.702 406.276C391.082 403.78 392.398 400.561 393.689 396.576L393.689 396.576L393.691 396.569C398.578 382.235 401.104 365.702 401.211 351.141C401.264 343.861 400.713 337.086 399.556 331.332C398.396 325.57 396.636 320.873 394.299 317.715L394.296 317.711C388.397 309.567 380.244 305.602 371.333 305.736C362.407 305.871 352.666 310.121 343.639 318.528C326.013 335.052 310.305 364.375 305.477 389.414C304.969 392.349 303.389 394.353 301.684 394.917C300.814 395.205 299.909 395.111 299.17 394.546C298.443 393.99 297.948 393.035 297.751 391.738C297.612 390.827 297.692 389.524 297.929 387.955C298.168 386.373 298.574 384.476 299.113 382.356C300.192 378.115 301.811 372.951 303.723 367.568C307.544 356.809 312.551 345.123 316.778 338.144C321.81 329.769 325.183 324.567 329.282 319.942C333.381 315.316 338.192 311.284 346.078 305.228Z" fill="#36290E" stroke="#36290E"/>
<path d="M435.474 337.828C434.165 338.028 433.056 337.834 432.194 337.224C431.336 336.616 430.799 335.65 430.521 334.456C429.971 332.089 430.395 328.643 431.603 324.567C434.029 316.384 439.711 305.365 447.835 294.652C455.268 284.723 461.675 277.423 466.349 273.305C468.67 271.26 470.623 269.945 472.095 269.529C472.838 269.319 473.548 269.314 474.12 269.666C474.698 270.022 475.005 270.662 475.124 271.443C475.143 271.567 475.113 271.672 475.102 271.711C475.086 271.765 475.065 271.816 475.045 271.859C475.005 271.947 474.949 272.049 474.885 272.159C474.755 272.379 474.564 272.672 474.325 273.024C473.844 273.729 473.146 274.701 472.288 275.872C470.569 278.214 468.192 281.368 465.587 284.808C464.799 285.85 463.989 286.919 463.17 287.999C458.58 294.056 453.706 300.487 450.641 304.745C448.825 307.266 447.399 309.075 446.238 310.543L446.15 310.654C445.029 312.071 444.17 313.157 443.438 314.276C441.95 316.549 440.966 318.986 439.484 324.627C439.052 326.27 439.053 327.32 439.295 328.19C439.543 329.08 440.052 329.833 440.773 330.898C442.216 333.03 444.255 336.086 445.731 343.159C447.194 350.168 447.831 355.21 447.734 359.817C447.637 364.429 446.804 368.579 445.358 373.801C443.94 379.119 442.774 382.466 441.328 384.468C440.593 385.486 439.775 386.173 438.804 386.594C437.844 387.011 436.771 387.15 435.551 387.134C433.354 387.192 431.561 386.624 430.028 385.16C428.52 383.721 427.302 381.451 426.145 378.197C425.25 375.811 424.602 373.315 424.316 371.218C424.173 370.17 424.119 369.207 424.174 368.399C424.228 367.61 424.392 366.894 424.75 366.407C425.005 366.062 425.261 365.759 425.528 365.53C425.796 365.3 426.103 365.12 426.457 365.069C427.195 364.964 427.832 365.445 428.432 366.176C429.051 366.933 429.764 368.121 430.648 369.796C431.536 371.478 432.613 373.683 433.96 376.492C434.514 377.595 435.008 378.072 435.375 378.207C435.66 378.313 436.002 378.251 436.451 377.754C436.906 377.251 437.372 376.394 437.816 375.206C438.256 374.028 438.662 372.562 439.015 370.876C440.43 364.124 440.98 353.999 439.75 345.063C439.344 342.399 438.724 340.478 437.96 339.28C437.206 338.1 436.371 337.692 435.474 337.828Z" fill="#36290E" stroke="#36290E"/>
</g>
</g>
<defs>
<clipPath id="clip0_1019_878">
<rect width="355.849" height="677.942" fill="white" transform="translate(660.328) rotate(76.9104)"/>
</clipPath>
<clipPath id="clip1_1019_878">
<rect width="675.912" height="367.397" fill="white" transform="translate(11.0715 109.811) rotate(-8.65994)"/>
</clipPath>
</defs>
</svg>
