<?xml version="1.0" standalone="no"?>
<!DOCTYPE svg PUBLIC "-//W3C//DTD SVG 20010904//EN"
 "http://www.w3.org/TR/2001/REC-SVG-20010904/DTD/svg10.dtd">
<svg version="1.0" xmlns="http://www.w3.org/2000/svg"
 width="432.000000pt" height="577.000000pt" viewBox="0 0 432.000000 577.000000"
 preserveAspectRatio="xMidYMid meet">

<g transform="translate(0.000000,577.000000) scale(0.100000,-0.100000)"
fill="#000000" stroke="none">
<path d="M2132 4501 c-71 -18 -162 -103 -208 -193 -66 -129 -69 -268 -9 -410
31 -73 49 -100 107 -158 84 -85 162 -139 225 -155 45 -11 48 -14 59 -60 24
-93 74 -176 153 -256 42 -41 87 -82 101 -91 24 -15 24 -15 8 -54 -9 -21 -19
-54 -22 -72 -23 -134 232 -353 379 -325 39 8 101 47 115 73 13 24 -9 73 -41
90 -36 20 -112 38 -168 42 -43 2 -56 -1 -65 -15 -13 -20 5 -37 40 -37 40 0
151 -40 169 -61 27 -29 5 -41 -65 -36 -46 2 -69 12 -130 49 -112 70 -180 160
-180 237 0 33 5 44 27 58 52 34 186 17 324 -41 11 -5 24 1 38 15 28 30 16 43
-75 76 -54 20 -89 25 -159 26 -49 0 -101 -3 -116 -7 -21 -6 -33 0 -76 39 -75
67 -159 183 -188 260 -14 37 -25 70 -25 74 0 3 14 14 31 23 24 14 30 23 27 45
-3 31 -21 34 -74 13 -62 -26 -134 7 -256 119 -129 119 -183 301 -138 474 19
72 80 160 126 182 52 25 168 24 260 -4 83 -25 190 -93 222 -141 29 -42 24
-105 -10 -133 -28 -24 -15 -34 18 -13 33 22 54 73 54 129 0 37 -6 50 -32 76
-40 39 -176 121 -239 144 -54 21 -161 30 -207 18z"/>
<path d="M1505 3768 c-88 -60 -104 -101 -104 -268 1 -192 23 -286 215 -885 83
-260 111 -364 124 -452 16 -108 11 -172 -16 -189 -18 -12 -27 -11 -73 12 -40
20 -55 24 -64 15 -15 -15 1 -40 42 -64 47 -28 105 -15 155 34 l39 39 -6 118
c-6 139 -19 187 -133 529 -46 139 -84 260 -84 269 0 9 -13 56 -30 105 -67 201
-92 333 -93 504 -1 116 1 146 16 172 19 36 62 62 90 55 14 -3 18 1 15 15 -5
29 -41 26 -93 -9z"/>
<path d="M1806 3644 c-9 -8 -16 -23 -16 -33 0 -46 173 -262 193 -242 19 19 60
12 127 -20 104 -49 167 -122 155 -179 -8 -37 8 -40 31 -5 32 48 3 101 -113
207 -22 20 -136 58 -175 58 -21 0 -39 14 -79 63 -29 34 -63 86 -76 115 -14 28
-26 52 -28 52 -2 0 -11 -7 -19 -16z"/>
<path d="M1837 3333 c-23 -22 0 -41 109 -88 64 -27 118 -53 120 -56 2 -4 -17
-10 -42 -14 -35 -5 -47 -12 -54 -31 -8 -20 -16 -24 -48 -24 -79 0 -115 -66
-78 -138 19 -36 52 -66 65 -57 18 10 13 34 -14 69 -29 38 -32 66 -7 66 22 0
93 -19 206 -55 l89 -29 18 23 c11 13 19 26 19 30 0 8 -78 61 -90 61 -4 0 -13
7 -20 15 -10 12 -8 17 13 26 22 10 57 65 46 72 -5 3 -56 23 -114 44 -22 8 -75
32 -117 54 -80 40 -90 44 -101 32z"/>
<path d="M1980 2907 c-30 -23 -50 -61 -50 -94 0 -26 14 -46 79 -115 61 -64 82
-80 91 -71 15 14 -9 51 -82 130 -50 54 -59 82 -33 103 15 13 90 -6 218 -56 42
-16 49 -17 57 -4 17 27 11 35 -48 59 -142 60 -202 72 -232 48z"/>
<path d="M2379 2798 c-7 -13 -9 -43 -6 -76 8 -75 49 -140 109 -172 l47 -25 36
19 c19 11 35 27 35 37 0 13 -77 118 -110 149 -3 3 -18 24 -33 48 -30 47 -60
55 -78 20z m123 -160 c17 -21 28 -41 25 -44 -15 -15 -87 63 -87 95 0 18 20 1
62 -51z"/>
<path d="M2587 2803 c-15 -14 -5 -46 30 -96 53 -76 125 -167 132 -167 3 1 17
7 31 15 38 22 90 18 149 -11 62 -31 70 -46 47 -84 -9 -16 -12 -31 -7 -34 14
-9 57 30 71 64 11 28 11 34 -7 58 -22 31 -92 69 -141 78 -19 4 -52 1 -74 -5
-39 -12 -40 -12 -74 26 -18 21 -52 66 -75 101 -38 57 -64 74 -82 55z"/>
<path d="M1922 2688 c-19 -19 -15 -33 41 -117 30 -44 60 -93 67 -110 14 -34
31 -39 50 -16 16 19 36 19 98 -1 57 -19 108 -65 121 -111 8 -27 6 -34 -15 -52
-14 -12 -22 -26 -19 -30 9 -16 44 0 71 32 20 24 24 36 18 61 -19 88 -94 143
-213 155 l-64 6 -61 97 c-34 54 -66 98 -71 98 -6 0 -16 -5 -23 -12z"/>
<path d="M2489 2440 c-38 -20 -55 -49 -65 -108 -11 -73 56 -193 168 -298 60
-57 96 -74 109 -53 6 10 -3 26 -31 54 -117 117 -200 247 -200 313 0 39 14 49
81 57 50 6 70 2 190 -38 233 -79 278 -105 251 -148 -16 -25 -15 -29 6 -29 20
0 42 21 62 59 27 52 -15 80 -248 166 -110 40 -132 45 -205 45 -60 -1 -91 -6
-118 -20z"/>
<path d="M1946 2341 c-21 -24 -14 -41 35 -80 45 -36 49 -51 16 -51 -35 0 -67
-40 -67 -82 0 -44 32 -89 51 -71 9 9 8 20 -6 48 -11 24 -13 41 -7 47 11 11
122 -16 172 -42 49 -26 109 -50 128 -50 8 0 24 7 34 16 17 16 14 19 -57 55
-106 55 -246 161 -232 176 4 3 32 -2 62 -12 43 -15 58 -16 67 -7 16 16 -3 34
-60 56 -57 22 -114 21 -136 -3z"/>
<path d="M2006 1970 c-57 -18 -115 -93 -129 -167 -8 -43 17 -125 59 -189 49
-77 71 -89 168 -86 143 4 250 -42 294 -128 28 -56 28 -82 -1 -116 -19 -21 -34
-28 -71 -30 -54 -3 -61 -7 -53 -29 8 -20 68 -20 107 0 16 8 38 29 50 45 19 26
22 42 18 93 -5 85 -32 135 -95 172 -67 41 -161 59 -262 50 l-79 -7 -25 34
c-68 89 -93 213 -52 258 23 26 78 50 112 50 51 0 153 -34 334 -111 103 -43
198 -79 212 -79 32 0 57 34 57 75 -1 42 -25 128 -37 132 -16 6 -23 -37 -13
-87 12 -61 13 -60 -10 -60 -18 0 -194 73 -215 90 -5 4 -57 26 -115 49 -110 45
-199 59 -254 41z"/>
</g>
</svg>
